<svg xmlns="http://www.w3.org/2000/svg" viewBox="0 0 216.48 228.2"><defs><style>.cls-1{fill:#1e2c50;}.cls-2{fill:#1f2447;}.cls-3{fill:#ffd402;}.cls-4{fill:#1d1d1b;}.cls-5{fill:none;stroke:#2e2e84;stroke-miterlimit:10;stroke-width:4px;}.cls-6{fill:#fff;}.cls-7{fill:#2b345f;}.cls-8{fill:#172039;}.cls-9{fill:#4f67af;}.cls-10{fill:#6d7dbd;}</style></defs><title>Asset 2</title><g id="Layer_2" data-name="Layer 2"><g id="Layer_1-2" data-name="Layer 1"><path class="cls-1" d="M199.76,92.8c.05-35.68-3-74.14-11.45-92.8-9.44,7-13.93,20.68-13.93,20.68S164.21,9.43,109.8,9.48h-.38C55,9.43,44.84,20.68,44.84,20.68S40.35,7,30.91,0C22.73,18.12,19,54.92,18.19,89.71,11,104.6-6.13,142.81,2.26,152.2c5.81,6.51,12-2.71,16.84-14.11,0,.78.11,1.55.17,2.31-6,14.47-10.39,30.07-3.76,34,5.06,3,10.43.52,15.24-3.89,7.47,26.72,40.68,46.87,80.54,46.87,38,0,70-18.36,79.36-43.26,3.4,1.84,6.93,2.29,10.32.28,6.48-3.84,2.41-18.83-3.36-33,.07-.74.14-1.5.21-2.26,4.79,10.92,10.76,19.4,16.4,13.09C222.08,143.4,207.53,109.31,199.76,92.8Z"/><path class="cls-2" d="M2.26,152.63c5.81,6.5,12-2.72,16.84-14.12,0,.79.11,1.56.17,2.32-6,14.46-10.39,30.06-3.76,34,5.06,3,10.43.52,15.24-3.89,7.47,26.72,40.68,46.87,80.54,46.87,38,0,70-18.36,79.36-43.27,3.4,1.84,6.93,2.29,10.32.29,6.48-3.84,2.41-18.84-3.36-33,.07-.74.14-1.5.21-2.26,4.79,10.91,10.76,19.4,16.4,13.09,7.86-8.8-6.69-42.9-14.46-59.41,0,0-51,12.8-93.39,12.31C66,105.06,18.19,90.14,18.19,90.14,11,105-6.13,143.24,2.26,152.63Z"/><circle class="cls-3" cx="69.01" cy="58.72" r="26.39"/><circle class="cls-4" cx="69.01" cy="58.72" r="11.26"/><circle class="cls-5" cx="69.01" cy="58.72" r="26.39"/><circle class="cls-6" cx="69.01" cy="58.72" r="2.9"/><circle class="cls-3" cx="152.61" cy="58.72" r="26.39"/><circle class="cls-4" cx="152.61" cy="58.72" r="11.26"/><circle class="cls-5" cx="152.61" cy="58.72" r="26.39"/><circle class="cls-6" cx="152.61" cy="58.72" r="2.9"/><path class="cls-7" d="M106.36,215.28V105.6c-27.65-.32-71.31-11.44-88.18-15.89l-1.25,3.1c-7.7,16.31-22.62,51-14.68,59.89,5.82,6.5,12-2.72,16.84-14.12,0,.79.11,1.56.17,2.32-6,14.46-10.39,30.06-3.76,34,5.06,3,10.43.52,15.24-3.89,7.16,25.63,38,45.21,75.72,46.76Z"/><path class="cls-8" d="M80.17,203.38c-2.4,0-4.52,2.1-5.81,5.31,0-5.26-3.49-6.78-6.52-6.78-2.56,0-4.79,2.37-6,5.92.68-6.42-3.16-8.21-6.44-8.21-3.92,0-7.1,5.55-7.1,12.41s9.31,12.4,9.31,12.4,1.26-5.8,3.29-12.3c-.07.71-.11,1.44-.11,2.19,0,6.85,9.3,12.4,9.3,12.4s1.16-5.33,3-11.5c0,.19,0,.38,0,.57,0,6.86,9.31,12.41,9.31,12.41s1.27-5.87,3.32-12.41C88.81,205.9,84.09,203.38,80.17,203.38Z"/><path class="cls-8" d="M157.58,199.62c-3.29,0-7.13,1.79-6.45,8.21-1.25-3.55-3.48-5.92-6-5.92-3,0-6.52,1.52-6.52,6.78-1.29-3.21-3.41-5.31-5.81-5.31-3.92,0-8.64,2.52-5.54,12.41,2.05,6.54,3.32,12.41,3.32,12.41s9.31-5.55,9.31-12.41c0-.19,0-.38,0-.57,1.89,6.17,3,11.5,3,11.5s9.3-5.55,9.3-12.4c0-.75,0-1.48-.11-2.19,2,6.5,3.29,12.3,3.29,12.3s9.31-5.55,9.31-12.4S161.49,199.62,157.58,199.62Z"/><path class="cls-9" d="M123,77.41s-1.36-3.34-12.54-3.34-11.86,3.34-11.86,3.34-.51,8.65,12.2,20C110.81,97.45,123,86.52,123,77.41Z"/><path class="cls-10" d="M110.85,86.49a10.89,10.89,0,0,0-7.37,2.87,50.15,50.15,0,0,0,7.37,8.09,57.73,57.73,0,0,0,7.29-8.17A10.92,10.92,0,0,0,110.85,86.49Z"/><polygon class="cls-1" points="93.87 10.75 90.27 4.37 100.32 10.75 106.36 0 112.21 10.75 123.01 4.91 119.97 10.75 93.87 10.75"/></g></g></svg>